<svg width="14" height="16" viewBox="0 0 14 16" fill="none" xmlns="http://www.w3.org/2000/svg">
<path d="M12 15H2C1.44772 15 1 14.5523 1 14V7.03455C1 6.75737 1.11505 6.49262 1.31768 6.3035L6.31768 1.63683C6.70189 1.27824 7.29811 1.27824 7.68232 1.63683L12.6823 6.3035C12.885 6.49262 13 6.75737 13 7.03455V14C13 14.5523 12.5523 15 12 15Z" fill="#AFAFAF" stroke="#AFAFAF"/>
<path d="M7.55366 8H5.99811C5.44582 8 4.99811 8.44772 4.99811 9V12.3333C4.99811 12.8856 5.44582 13.3333 5.99811 13.3333H7.55366C8.10595 13.3333 8.55366 12.8856 8.55366 12.3333V9C8.55366 8.44772 8.10595 8 7.55366 8Z" stroke="#212121"/>
</svg>
