<svg width="22" height="16" viewBox="0 0 22 16" fill="none" xmlns="http://www.w3.org/2000/svg">
<path d="M10.5855 8.26572L5.10415 10.7623C4.30692 11.1254 4.32879 12.2654 5.13935 12.5976L10.6207 14.8445C10.8638 14.9442 11.1362 14.9442 11.3793 14.8445L16.8606 12.5976C17.6712 12.2654 17.6931 11.1254 16.8959 10.7623L11.4145 8.26572C11.1512 8.14579 10.8488 8.14579 10.5855 8.26572Z" fill="#418BFE" stroke="#418BFE"/>
<path d="M10.5855 5.95802L5.10415 8.45458C4.30692 8.81769 4.32879 9.95765 5.13935 10.2899L10.6207 12.5368C10.8638 12.6365 11.1362 12.6365 11.3793 12.5368L16.8606 10.2899C17.6712 9.95765 17.6931 8.81769 16.8959 8.45458L11.4145 5.95802C11.1512 5.83808 10.8488 5.83808 10.5855 5.95802Z" fill="#418BFE" stroke="#418BFE"/>
<path d="M11 10V0" stroke="#212121"/>
<path d="M0.5 8.5L10.6061 12.8312C10.8576 12.939 11.1424 12.939 11.3939 12.8312L21.5 8.5" stroke="#212121"/>
<ellipse cx="11" cy="3.46153" rx="2.28571" ry="2.30769" fill="#418BFE"/>
</svg>
