<svg width="13" height="15" viewBox="0 0 13 15" fill="none" xmlns="http://www.w3.org/2000/svg">
<path fill-rule="evenodd" clip-rule="evenodd" d="M2 14H11.1197C11.672 14 12.1197 13.5523 12.1197 13V6.65074C12.1197 6.37356 12.0047 6.10881 11.802 5.91968L7.24218 1.66381C6.85797 1.30522 6.26175 1.30522 5.87754 1.66381L1.31768 5.91968C1.11505 6.10881 1 6.37355 1 6.65074V13C1 13.5523 1.44772 14 2 14ZM5 7H8C8.55228 7 9 7.44772 9 8V12C9 12.5523 8.55228 13 8 13H5C4.44772 13 4 12.5523 4 12V8C4 7.44772 4.44772 7 5 7Z" fill="#9A7ED6"/>
<path d="M11.802 5.91968L12.1432 5.55415L12.1432 5.55415L11.802 5.91968ZM7.24218 1.66381L7.58334 1.29828L7.58334 1.29828L7.24218 1.66381ZM5.87754 1.66381L6.2187 2.02934L5.87754 1.66381ZM1.31768 5.91968L1.65884 6.28521L1.65884 6.28521L1.31768 5.91968ZM11.1197 13.5H2V14.5H11.1197V13.5ZM11.6197 13C11.6197 13.2761 11.3959 13.5 11.1197 13.5V14.5C11.9481 14.5 12.6197 13.8284 12.6197 13H11.6197ZM11.6197 6.65074V13H12.6197V6.65074H11.6197ZM11.4609 6.28521C11.5622 6.37977 11.6197 6.51215 11.6197 6.65074H12.6197C12.6197 6.23496 12.4472 5.83784 12.1432 5.55415L11.4609 6.28521ZM6.90102 2.02934L11.4609 6.28521L12.1432 5.55415L7.58334 1.29828L6.90102 2.02934ZM6.2187 2.02934C6.41081 1.85004 6.70892 1.85004 6.90102 2.02934L7.58334 1.29828C7.00703 0.760394 6.11269 0.760395 5.53638 1.29828L6.2187 2.02934ZM1.65884 6.28521L6.2187 2.02934L5.53638 1.29828L0.976522 5.55415L1.65884 6.28521ZM1.5 6.65074C1.5 6.51215 1.55752 6.37977 1.65884 6.28521L0.976522 5.55415C0.67257 5.83784 0.5 6.23496 0.5 6.65074H1.5ZM1.5 13V6.65074H0.5V13H1.5ZM2 13.5C1.72386 13.5 1.5 13.2761 1.5 13H0.5C0.5 13.8284 1.17157 14.5 2 14.5V13.5ZM8 6.5H5V7.5H8V6.5ZM9.5 8C9.5 7.17157 8.82843 6.5 8 6.5V7.5C8.27614 7.5 8.5 7.72386 8.5 8H9.5ZM9.5 12V8H8.5V12H9.5ZM8 13.5C8.82843 13.5 9.5 12.8284 9.5 12H8.5C8.5 12.2761 8.27614 12.5 8 12.5V13.5ZM5 13.5H8V12.5H5V13.5ZM3.5 12C3.5 12.8284 4.17157 13.5 5 13.5V12.5C4.72386 12.5 4.5 12.2761 4.5 12H3.5ZM3.5 8V12H4.5V8H3.5ZM5 6.5C4.17157 6.5 3.5 7.17157 3.5 8H4.5C4.5 7.72386 4.72386 7.5 5 7.5V6.5Z" fill="#9A7ED6"/>
</svg>
