<svg width="12" height="14" viewBox="0 0 12 14" fill="none" xmlns="http://www.w3.org/2000/svg">
<path fill-rule="evenodd" clip-rule="evenodd" d="M1 14H11C11.5523 14 12 13.5523 12 13V6.03456C12 5.75737 11.885 5.49263 11.6823 5.3035L6.68232 0.636834C6.29811 0.278241 5.70189 0.278241 5.31768 0.636834L0.317682 5.3035C0.115047 5.49263 0 5.75737 0 6.03456V13C0 13.5523 0.447715 14 1 14ZM5 6.5C4.17157 6.5 3.5 7.17158 3.5 8V11C3.5 11.8284 4.17157 12.5 5 12.5H7C7.82843 12.5 8.5 11.8284 8.5 11V8C8.5 7.17158 7.82843 6.5 7 6.5H5ZM4.5 8C4.5 7.72386 4.72386 7.5 5 7.5H7C7.27614 7.5 7.5 7.72386 7.5 8V11C7.5 11.2761 7.27614 11.5 7 11.5H5C4.72386 11.5 4.5 11.2761 4.5 11V8Z" fill="#DED2F9"/>
</svg>
