<svg width="14" height="14" viewBox="0 0 14 14" fill="none" xmlns="http://www.w3.org/2000/svg">
<path fill-rule="evenodd" clip-rule="evenodd" d="M0 7C0 5.13872 0 4.20808 0.244717 3.45492C0.739307 1.93273 1.93273 0.739307 3.45492 0.244717C4.20808 0 5.13872 0 7 0C8.86128 0 9.79192 0 10.5451 0.244717C12.0673 0.739307 13.2607 1.93273 13.7553 3.45492C14 4.20808 14 5.13872 14 7C14 8.86128 14 9.79192 13.7553 10.5451C13.2607 12.0673 12.0673 13.2607 10.5451 13.7553C9.79192 14 8.86128 14 7 14C5.13872 14 4.20808 14 3.45492 13.7553C1.93273 13.2607 0.739307 12.0673 0.244717 10.5451C0 9.79192 0 8.86128 0 7ZM1.55556 6.44556C1.55556 4.68041 1.55556 3.79783 1.91537 3.13099C2.19331 2.61587 2.61587 2.19331 3.13099 1.91537C3.79783 1.55556 4.68041 1.55556 6.44556 1.55556H7.55444C9.31959 1.55556 10.2022 1.55556 10.869 1.91537C11.3841 2.19331 11.8067 2.61587 12.0846 3.13099C12.4444 3.79783 12.4444 4.68041 12.4444 6.44556V7.55444C12.4444 9.31959 12.4444 10.2022 12.0846 10.869C11.8067 11.3841 11.3841 11.8067 10.869 12.0846C10.2022 12.4444 9.31959 12.4444 7.55444 12.4444H6.44556C4.68041 12.4444 3.79783 12.4444 3.13099 12.0846C2.61587 11.8067 2.19331 11.3841 1.91537 10.869C1.55556 10.2022 1.55556 9.31959 1.55556 7.55444V6.44556ZM7 3.11111C4.85223 3.11111 3.11111 4.85223 3.11111 7C3.11111 9.14777 4.85223 10.8889 7 10.8889C9.14777 10.8889 10.8889 9.14777 10.8889 7C10.8889 4.85223 9.14777 3.11111 7 3.11111ZM4.66667 7C4.66667 5.71134 5.71134 4.66667 7 4.66667C8.28866 4.66667 9.33333 5.71134 9.33333 7C9.33333 8.28866 8.28866 9.33333 7 9.33333C5.71134 9.33333 4.66667 8.28866 4.66667 7ZM10.8889 2.33333C10.4593 2.33333 10.1111 2.68156 10.1111 3.11111C10.1111 3.54067 10.4593 3.88889 10.8889 3.88889C11.3184 3.88889 11.6667 3.54067 11.6667 3.11111C11.6667 2.68156 11.3184 2.33333 10.8889 2.33333Z" fill="#9A7ED6"/>
</svg>
