<svg width="16" height="15" viewBox="0 0 16 15" fill="none" xmlns="http://www.w3.org/2000/svg">
<path d="M8.37929 13.8445L13.7741 11.6331C14.2548 11.436 14.1139 10.7206 13.5943 10.7207C13.532 10.7207 13.4704 10.7329 13.4129 10.7568L8.38285 12.8413C8.13772 12.9429 7.86228 12.9429 7.61715 12.8413L2.58713 10.7568C2.52961 10.7329 2.46795 10.7206 2.40568 10.7206C1.88612 10.7206 1.74519 11.436 2.22593 11.6331L7.62071 13.8445C7.86376 13.9441 8.13624 13.9441 8.37929 13.8445Z" fill="#DED2F9" stroke="#DED2F9"/>
<path fill-rule="evenodd" clip-rule="evenodd" d="M2.10416 7.45459L7.58551 4.95802C7.84883 4.83809 8.15119 4.83809 8.41451 4.95802L13.8959 7.45459C14.6931 7.8177 14.6712 8.95765 13.8607 9.28992L8.3793 11.5368C8.13625 11.6365 7.86377 11.6365 7.62072 11.5368L2.13936 9.28992C1.3288 8.95765 1.30693 7.8177 2.10416 7.45459ZM8.5 5.37285C8.5 5.09671 8.27614 4.87285 8 4.87285C7.72386 4.87285 7.5 5.09671 7.5 5.37285V9C7.5 9.27614 7.72386 9.5 8 9.5C8.27614 9.5 8.5 9.27614 8.5 9V5.37285Z" fill="#DED2F9"/>
<ellipse cx="8.00001" cy="2.46153" rx="2.28571" ry="2.30769" fill="#DED2F9"/>
</svg>
