<svg width="14" height="14" viewBox="0 0 14 14" fill="none" xmlns="http://www.w3.org/2000/svg">
<path fill-rule="evenodd" clip-rule="evenodd" d="M7 14C10.866 14 14 10.866 14 7C14 3.13401 10.866 0 7 0C3.13401 0 0 3.13401 0 7C0 10.866 3.13401 14 7 14ZM6.14844 9.60059H7.76709C7.75863 9.1097 7.79883 8.76904 7.8877 8.57861C7.98079 8.38818 8.21566 8.13639 8.59229 7.82324C9.32015 7.2181 9.79411 6.73991 10.0142 6.38867C10.2384 6.03744 10.3506 5.66504 10.3506 5.27148C10.3506 4.56055 10.048 3.93848 9.44287 3.40527C8.83773 2.86784 8.02311 2.59912 6.99902 2.59912C6.02572 2.59912 5.23861 2.86361 4.6377 3.39258C4.04102 3.92155 3.7194 4.56478 3.67285 5.32227L5.31055 5.52539C5.4248 4.99642 5.63428 4.60286 5.93896 4.34473C6.24365 4.08659 6.6224 3.95752 7.0752 3.95752C7.54492 3.95752 7.91732 4.08236 8.19238 4.33203C8.47168 4.57747 8.61133 4.8737 8.61133 5.2207C8.61133 5.47038 8.53304 5.69889 8.37646 5.90625C8.2749 6.03744 7.96387 6.31462 7.44336 6.73779C6.92285 7.16097 6.57585 7.54183 6.40234 7.88037C6.22884 8.21891 6.14209 8.65055 6.14209 9.17529C6.14209 9.22607 6.14421 9.36784 6.14844 9.60059ZM6.14844 10.2163V12H7.93213V10.2163H6.14844Z" fill="#9A7ED6"/>
</svg>
