<svg width="14" height="14" viewBox="0 0 14 14" fill="none" xmlns="http://www.w3.org/2000/svg">
<path fill-rule="evenodd" clip-rule="evenodd" d="M9.21195 9.80763C11.8563 9.80763 14 7.61212 14 4.90382C14 2.19551 11.8563 0 9.21195 0C6.56757 0 4.42389 2.19551 4.42389 4.90382C4.42389 7.61212 6.56757 9.80763 9.21195 9.80763ZM9.2119 8.49995C11.1511 8.49995 12.7231 6.88991 12.7231 4.90382C12.7231 2.91773 11.1511 1.30769 9.2119 1.30769C7.27269 1.30769 5.70066 2.91773 5.70066 4.90382C5.70066 6.88991 7.27269 8.49995 9.2119 8.49995Z" fill="#9A7ED6"/>
<ellipse cx="9.21194" cy="4.90383" rx="2.23443" ry="2.28845" fill="#9A7ED6"/>
<path fill-rule="evenodd" clip-rule="evenodd" d="M4.42385 13.0768C6.18676 13.0768 7.61589 11.6132 7.61589 9.80763C7.61589 8.0021 6.18676 6.53842 4.42385 6.53842C2.66094 6.53842 1.23181 8.0021 1.23181 9.80763C1.23181 11.6132 2.66094 13.0768 4.42385 13.0768ZM4.42384 11.7692C5.48159 11.7692 6.33906 10.891 6.33906 9.80764C6.33906 8.72432 5.48159 7.84611 4.42384 7.84611C3.36609 7.84611 2.50862 8.72432 2.50862 9.80764C2.50862 10.891 3.36609 11.7692 4.42384 11.7692Z" fill="#9A7ED6"/>
<path d="M3.46622 6.86534C4.06542 6.45621 4.42383 5.7775 4.42383 5.05195V4.90381L5.06224 7.19226L3.46622 6.86534V6.86534Z" fill="#9A7ED6"/>
<path d="M8.62979 9.78325C8.20127 9.79829 7.81754 10.0484 7.62827 10.4361L7.29669 11.1153L7.29669 9.15378L8.62979 9.78325V9.78325Z" fill="#9A7ED6"/>
<rect width="1.30638" height="5.03832" rx="0.653189" transform="matrix(-0.202243 0.979335 -0.977333 -0.211706 5.18832 9.19907)" fill="#9A7ED6"/>
</svg>
